<svg width="15" height="27" viewBox="0 0 15 27" fill="none" xmlns="http://www.w3.org/2000/svg">
<path d="M14.2344 18.9957C14.331 19.0922 14.4076 19.2067 14.4598 19.3327C14.5121 19.4588 14.539 19.5939 14.539 19.7304C14.539 19.8669 14.5121 20.002 14.4598 20.128C14.4076 20.2541 14.331 20.3686 14.2344 20.4651L8.00404 26.6955C7.9076 26.792 7.79307 26.8686 7.66701 26.9208C7.54095 26.9731 7.40583 27 7.26937 27C7.13291 27 6.99778 26.9731 6.87172 26.9208C6.74566 26.8686 6.63114 26.792 6.5347 26.6955L0.304309 20.4651C0.109463 20.2702 -2.05303e-09 20.0059 0 19.7304C2.05303e-09 19.4548 0.109463 19.1906 0.304309 18.9957C0.499154 18.8009 0.763423 18.6914 1.03898 18.6914C1.31453 18.6914 1.5788 18.8009 1.77364 18.9957L7.26937 24.4927L12.7651 18.9957C12.8615 18.8992 12.9761 18.8226 13.1021 18.7703C13.2282 18.7181 13.3633 18.6912 13.4998 18.6912C13.6362 18.6912 13.7713 18.7181 13.8974 18.7703C14.0235 18.8226 14.138 18.8992 14.2344 18.9957ZM1.77364 8.00428L7.26937 2.50725L12.7651 8.00428C12.9599 8.19912 13.2242 8.30858 13.4998 8.30858C13.7753 8.30858 14.0396 8.19912 14.2344 8.00428C14.4293 7.80943 14.5387 7.54516 14.5387 7.26961C14.5387 6.99405 14.4293 6.72979 14.2344 6.53494L8.00404 0.304548C7.9076 0.208002 7.79307 0.13141 7.66701 0.0791537C7.54095 0.026897 7.40583 0 7.26937 0C7.13291 0 6.99778 0.026897 6.87172 0.0791537C6.74566 0.13141 6.63114 0.208002 6.5347 0.304548L0.304309 6.53494C0.109463 6.72979 -5.43182e-09 6.99405 0 7.26961C5.43182e-09 7.54516 0.109464 7.80943 0.304309 8.00427C0.499155 8.19912 0.763423 8.30858 1.03898 8.30858C1.31453 8.30858 1.5788 8.19912 1.77364 8.00428Z" fill="#031B15"/>
</svg>
