<svg width="28" height="16" viewBox="0 0 28 16" fill="none" xmlns="http://www.w3.org/2000/svg">
<path d="M27.627 2.17377L14.9004 14.9004C14.7822 15.0187 14.6418 15.1126 14.4873 15.1766C14.3328 15.2407 14.1672 15.2736 14 15.2736C13.8327 15.2736 13.6671 15.2407 13.5126 15.1766C13.3581 15.1126 13.2178 15.0187 13.0996 14.9004L0.372961 2.17377C0.134158 1.93497 7.04228e-08 1.61109 5.56606e-08 1.27337C4.08985e-08 0.935649 0.134158 0.611763 0.372961 0.37296C0.611763 0.134157 0.935649 -4.08985e-08 1.27337 -5.56606e-08C1.61109 -7.04228e-08 1.93497 0.134157 2.17377 0.37296L14 12.2007L25.8262 0.372959C25.9444 0.254716 26.0848 0.16092 26.2393 0.0969276C26.3938 0.0329349 26.5593 -1.16095e-06 26.7266 -1.16825e-06C26.8938 -1.17556e-06 27.0594 0.0329348 27.2139 0.0969275C27.3683 0.16092 27.5087 0.254716 27.627 0.372959C27.7452 0.491202 27.839 0.631577 27.903 0.786069C27.967 0.940561 27.9999 1.10614 27.9999 1.27337C27.9999 1.44059 27.967 1.60617 27.903 1.76066C27.839 1.91515 27.7452 2.05553 27.627 2.17377Z" fill="#031B15"/>
</svg>
