<svg width="40" height="25" viewBox="0 0 40 25" fill="none" xmlns="http://www.w3.org/2000/svg">
<path d="M12.5 0C9.18479 0 6.00537 1.31696 3.66117 3.66117C1.31696 6.00537 0 9.18479 0 12.5C0 15.8152 1.31696 18.9946 3.66117 21.3388C6.00537 23.683 9.18479 25 12.5 25H27.5C30.8152 25 33.9946 23.683 36.3388 21.3388C38.683 18.9946 40 15.8152 40 12.5C40 9.18479 38.683 6.00537 36.3388 3.66117C33.9946 1.31696 30.8152 0 27.5 0H12.5ZM27.5 22.5C24.8478 22.5 22.3043 21.4464 20.4289 19.5711C18.5536 17.6957 17.5 15.1522 17.5 12.5C17.5 9.84783 18.5536 7.3043 20.4289 5.42893C22.3043 3.55357 24.8478 2.5 27.5 2.5C30.1522 2.5 32.6957 3.55357 34.5711 5.42893C36.4464 7.3043 37.5 9.84783 37.5 12.5C37.5 15.1522 36.4464 17.6957 34.5711 19.5711C32.6957 21.4464 30.1522 22.5 27.5 22.5Z" fill="#027056"/>
</svg>
