<svg width="18" height="21" viewBox="0 0 18 21" fill="none" xmlns="http://www.w3.org/2000/svg">
<path d="M0.256418 8.13137L8.13116 0.25663C8.21242 0.175279 8.30892 0.110742 8.41514 0.0667103C8.52136 0.0226768 8.63522 1.44833e-05 8.7502 1.44933e-05C8.86518 1.45034e-05 8.97904 0.0226769 9.08526 0.0667104C9.19148 0.110742 9.28798 0.175279 9.36924 0.25663L17.244 8.13137C17.4082 8.29555 17.5004 8.51822 17.5004 8.75041C17.5004 8.9826 17.4082 9.20527 17.244 9.36945C17.0798 9.53363 16.8571 9.62587 16.6249 9.62587C16.3927 9.62587 16.1701 9.53363 16.0059 9.36945L9.62517 2.98763L9.62517 20.125C9.62517 20.3571 9.53298 20.5796 9.3689 20.7437C9.20481 20.9078 8.98225 21 8.7502 21C8.51814 21 8.29559 20.9078 8.1315 20.7437C7.96741 20.5796 7.87523 20.3571 7.87523 20.125L7.87523 2.98763L1.4945 9.36945C1.33032 9.53363 1.10765 9.62587 0.87546 9.62587C0.643275 9.62587 0.420599 9.53363 0.256418 9.36945C0.0922392 9.20527 2.95788e-06 8.98259 2.97818e-06 8.75041C2.99848e-06 8.51822 0.0922393 8.29555 0.256418 8.13137Z" fill="#1D874F"/>
</svg>
