<svg width="18" height="21" viewBox="0 0 18 21" fill="none" xmlns="http://www.w3.org/2000/svg">
<path d="M0.256414 8.13136L8.13116 0.256618C8.21242 0.175267 8.30892 0.11073 8.41514 0.0666983C8.52136 0.0226647 8.63521 2.32506e-06 8.7502 2.2949e-06C8.86518 2.26474e-06 8.97904 0.0226646 9.08526 0.0666981C9.19148 0.11073 9.28798 0.175267 9.36924 0.256618L17.244 8.13136C17.4082 8.29554 17.5004 8.51822 17.5004 8.7504C17.5004 8.98259 17.4082 9.20526 17.244 9.36944C17.0798 9.53362 16.8571 9.62586 16.6249 9.62586C16.3928 9.62586 16.1701 9.53362 16.0059 9.36944L9.62517 2.98762L9.62518 20.125C9.62518 20.3571 9.53299 20.5796 9.3689 20.7437C9.20481 20.9078 8.98226 21 8.7502 21C8.51815 21 8.29559 20.9078 8.13151 20.7437C7.96742 20.5796 7.87523 20.3571 7.87523 20.125L7.87523 2.98762L1.4945 9.36945C1.33032 9.53363 1.10764 9.62586 0.875457 9.62586C0.643271 9.62586 0.420596 9.53363 0.256414 9.36945C0.0922352 9.20527 -1.2445e-06 8.98259 -1.3054e-06 8.75041C-1.36629e-06 8.51822 0.0922349 8.29554 0.256414 8.13136Z" fill="#027056"/>
</svg>
