<svg width="17" height="9" viewBox="0 0 17 9" fill="none" xmlns="http://www.w3.org/2000/svg">
<path d="M16.2793 1.2809L8.78009 8.78009C8.71044 8.84981 8.62773 8.90513 8.5367 8.94287C8.44566 8.98061 8.34807 9.00003 8.24952 9.00003C8.15097 9.00003 8.05339 8.98061 7.96235 8.94287C7.87131 8.90513 7.7886 8.84981 7.71895 8.78009L0.219768 1.2809C0.0790529 1.14019 0 0.949337 0 0.750336C0 0.551334 0.0790529 0.360483 0.219768 0.219768C0.360483 0.0790526 0.551334 0 0.750336 0C0.949337 0 1.14019 0.0790526 1.2809 0.219768L8.24952 7.18932L15.2181 0.219768C15.2878 0.150093 15.3705 0.0948235 15.4616 0.0571156C15.5526 0.0194077 15.6502 0 15.7487 0C15.8472 0 15.9448 0.0194077 16.0359 0.0571156C16.1269 0.0948235 16.2096 0.150093 16.2793 0.219768C16.349 0.289443 16.4042 0.37216 16.4419 0.463194C16.4796 0.554229 16.499 0.6518 16.499 0.750336C16.499 0.848871 16.4796 0.946442 16.4419 1.03748C16.4042 1.12851 16.349 1.21123 16.2793 1.2809Z" fill="#031B15"/>
</svg>
