<svg width="33" height="28" viewBox="0 0 33 28" fill="none" xmlns="http://www.w3.org/2000/svg">
<path d="M32.9433 26.608C32.9433 26.9441 32.8098 27.2663 32.5722 27.504C32.3345 27.7416 32.0123 27.8751 31.6762 27.8751H1.26705C0.931007 27.8751 0.608728 27.7416 0.37111 27.504C0.133492 27.2663 0 26.9441 0 26.608V1.26705C0 0.931007 0.133492 0.608728 0.37111 0.37111C0.608728 0.133493 0.931007 0 1.26705 0C1.60309 0 1.92537 0.133493 2.16299 0.37111C2.40061 0.608728 2.5341 0.931007 2.5341 1.26705V16.2135L10.5688 9.1861C10.7874 8.99471 11.0652 8.88429 11.3556 8.87333C11.6459 8.86237 11.9312 8.95155 12.1637 9.12592L21.4781 16.1121L30.8415 7.91905C30.9643 7.79753 31.1106 7.70238 31.2715 7.63948C31.4324 7.57657 31.6045 7.54723 31.7771 7.55326C31.9498 7.55928 32.1193 7.60054 32.2755 7.67451C32.4316 7.74848 32.5709 7.85359 32.6849 7.98338C32.7989 8.11317 32.8852 8.2649 32.9384 8.42925C32.9916 8.5936 33.0106 8.76709 32.9943 8.93907C32.978 9.11105 32.9267 9.27788 32.8436 9.42931C32.7605 9.58073 32.6472 9.71356 32.5109 9.81963L22.3745 18.689C22.1559 18.8804 21.8781 18.9908 21.5877 19.0017C21.2974 19.0127 21.012 18.9235 20.7796 18.7492L11.4652 11.7661L2.5341 19.5807V25.341H31.6762C32.0123 25.341 32.3345 25.4745 32.5722 25.7121C32.8098 25.9497 32.9433 26.272 32.9433 26.608Z" fill="#031B15"/>
</svg>
