<svg version="1.0" xmlns="http://www.w3.org/2000/svg"
 width="690.000000pt" height="488.000000pt" viewBox="0 0 690.000000 488.000000"
 preserveAspectRatio="xMidYMid meet">

<g transform="translate(0.000000,488.000000) scale(0.100000,-0.100000)"
fill="#000000" stroke="none">
<path d="M0 2440 l0 -2440 3450 0 c2293 0 3450 3 3450 10 0 7 -1152 10 -3435
10 l-3435 0 0 2430 c0 2153 -2 2430 -15 2430 -13 0 -15 -278 -15 -2440z"/>
<path d="M4770 4771 c-42 -10 -84 -41 -110 -79 l-25 -37 -5 -1330 c-5 -1251
-6 -1327 -21 -1285 -10 25 -22 68 -28 95 -39 172 -146 355 -285 489 -193 184
-424 276 -696 276 -181 0 -324 -36 -483 -120 -44 -23 -82 -39 -85 -35 -4 3 23
34 58 67 36 34 112 107 170 162 273 263 534 512 545 521 51 40 72 163 39 228
-20 37 -27 45 -719 765 -95 99 -134 122 -207 122 -84 -1 -90 -5 -378 -284 -69
-67 -181 -175 -250 -240 -69 -66 -181 -174 -250 -240 -69 -67 -181 -175 -250
-240 -69 -66 -181 -174 -250 -240 -69 -67 -181 -175 -250 -240 -69 -66 -181
-174 -250 -240 -69 -67 -181 -175 -250 -240 -69 -66 -181 -174 -250 -240 -432
-417 -400 -379 -400 -476 0 -49 5 -74 21 -100 12 -19 158 -174 324 -345 166
-170 338 -347 381 -392 94 -97 136 -123 204 -123 92 0 77 -12 490 384 101 97
437 418 625 596 49 47 141 135 205 195 351 336 361 346 370 340 4 -3 -18 -56
-50 -117 -32 -62 -65 -138 -74 -168 -114 -380 -10 -775 272 -1041 221 -209
538 -312 824 -268 345 53 625 256 776 561 32 66 82 209 82 236 0 22 25 92 32
92 5 0 8 -156 8 -347 0 -318 2 -352 19 -389 23 -51 71 -88 133 -103 71 -17
1108 -15 1166 2 59 18 105 57 131 111 l21 46 0 1751 c0 1344 -3 1761 -12 1792
-16 54 -73 112 -123 126 -43 12 -1149 14 -1195 2z"/>
</g>
</svg>
